<?xml version="1.0" encoding="utf-8"?>
<!-- Generator: Adobe Illustrator 26.3.1, SVG Export Plug-In . SVG Version: 6.00 Build 0)  -->
<!DOCTYPE svg PUBLIC "-//W3C//DTD SVG 1.1//EN" "http://www.w3.org/Graphics/SVG/1.1/DTD/svg11.dtd" [
	<!ENTITY ns_extend "http://ns.adobe.com/Extensibility/1.0/">
	<!ENTITY ns_ai "http://ns.adobe.com/AdobeIllustrator/10.0/">
	<!ENTITY ns_graphs "http://ns.adobe.com/Graphs/1.0/">
	<!ENTITY ns_vars "http://ns.adobe.com/Variables/1.0/">
	<!ENTITY ns_imrep "http://ns.adobe.com/ImageReplacement/1.0/">
	<!ENTITY ns_sfw "http://ns.adobe.com/SaveForWeb/1.0/">
	<!ENTITY ns_custom "http://ns.adobe.com/GenericCustomNamespace/1.0/">
	<!ENTITY ns_adobe_xpath "http://ns.adobe.com/XPath/1.0/">
]>
<svg version="1.1" id="Layer_1" xmlns:x="&ns_extend;" xmlns:i="&ns_ai;" xmlns:graph="&ns_graphs;"
	 xmlns="http://www.w3.org/2000/svg" xmlns:xlink="http://www.w3.org/1999/xlink" x="0px" y="0px" viewBox="0 0 19 30.3"
	 style="enable-background:new 0 0 19 30.3;" xml:space="preserve">
<style type="text/css">
	.st0{opacity:0.51;}
</style>
<metadata>
	<sfw  xmlns="&ns_sfw;">
		<slices></slices>
		<sliceSourceBounds  bottomLeftOrigin="true" height="23.4" width="12.5" x="84.2" y="-92.8"></sliceSourceBounds>
	</sfw>
</metadata>
<path class="st0" d="M15.6,25.7c-0.1-0.3-0.3-0.5-0.5-0.8c-3.3-3.3-6.5-6.5-9.8-9.8c-0.1-0.1-0.1-0.1-0.2-0.2
	c0.1-0.1,0.1-0.1,0.2-0.2c3.3-3.3,6.5-6.6,9.8-9.8c0.2-0.2,0.4-0.4,0.5-0.8c0,0,0-0.1,0-0.1c0,0,0-0.1,0-0.1
	c-0.2-0.6-0.9-0.8-1.3-0.4c-0.1,0.1-0.1,0.1-0.2,0.2c-3.5,3.5-7,7-10.5,10.5c-0.5,0.5-0.5,0.9,0,1.5c3.5,3.5,7,7.1,10.6,10.6
	c0.2,0.2,0.4,0.3,0.6,0.3c0.5,0.1,0.7-0.1,1-0.7C15.6,25.8,15.6,25.7,15.6,25.7z"/>
</svg>
