<?xml version="1.0" encoding="utf-8"?>
<!-- Generator: Adobe Illustrator 26.3.1, SVG Export Plug-In . SVG Version: 6.00 Build 0)  -->
<!DOCTYPE svg PUBLIC "-//W3C//DTD SVG 1.1//EN" "http://www.w3.org/Graphics/SVG/1.1/DTD/svg11.dtd" [
	<!ENTITY ns_extend "http://ns.adobe.com/Extensibility/1.0/">
	<!ENTITY ns_ai "http://ns.adobe.com/AdobeIllustrator/10.0/">
	<!ENTITY ns_graphs "http://ns.adobe.com/Graphs/1.0/">
	<!ENTITY ns_vars "http://ns.adobe.com/Variables/1.0/">
	<!ENTITY ns_imrep "http://ns.adobe.com/ImageReplacement/1.0/">
	<!ENTITY ns_sfw "http://ns.adobe.com/SaveForWeb/1.0/">
	<!ENTITY ns_custom "http://ns.adobe.com/GenericCustomNamespace/1.0/">
	<!ENTITY ns_adobe_xpath "http://ns.adobe.com/XPath/1.0/">
]>
<svg version="1.1" id="Layer_1" xmlns:x="&ns_extend;" xmlns:i="&ns_ai;" xmlns:graph="&ns_graphs;"
	 xmlns="http://www.w3.org/2000/svg" xmlns:xlink="http://www.w3.org/1999/xlink" x="0px" y="0px" viewBox="0 0 19 30.3"
	 style="enable-background:new 0 0 19 30.3;" xml:space="preserve">
<style type="text/css">
	.st0{opacity:0.51;}
</style>
<metadata>
	<sfw  xmlns="&ns_sfw;">
		<slices></slices>
		<sliceSourceBounds  bottomLeftOrigin="true" height="23.4" width="12.5" x="85.2" y="-92.8"></sliceSourceBounds>
	</sfw>
</metadata>
<path class="st0" d="M4.1,25.7c0.1-0.3,0.3-0.5,0.5-0.8c3.3-3.3,6.5-6.5,9.8-9.8c0.1-0.1,0.1-0.1,0.2-0.2c-0.1-0.1-0.1-0.1-0.2-0.2
	c-3.3-3.3-6.5-6.6-9.8-9.8C4.3,4.7,4.1,4.4,4.1,4.1c0,0,0-0.1,0-0.1c0,0,0-0.1,0-0.1C4.3,3.3,5,3,5.5,3.4c0.1,0.1,0.1,0.1,0.2,0.2
	c3.5,3.5,7,7,10.5,10.5c0.5,0.5,0.5,0.9,0,1.5c-3.5,3.5-7,7.1-10.6,10.6c-0.2,0.2-0.4,0.3-0.6,0.3c-0.5,0.1-0.7-0.1-1-0.7
	C4.1,25.8,4.1,25.7,4.1,25.7z"/>
</svg>
