<?xml version="1.0" encoding="utf-8"?>
<!-- Generator: Adobe Illustrator 27.5.0, SVG Export Plug-In . SVG Version: 6.00 Build 0)  -->
<!DOCTYPE svg PUBLIC "-//W3C//DTD SVG 1.1//EN" "http://www.w3.org/Graphics/SVG/1.1/DTD/svg11.dtd" [
	<!ENTITY ns_extend "http://ns.adobe.com/Extensibility/1.0/">
	<!ENTITY ns_ai "http://ns.adobe.com/AdobeIllustrator/10.0/">
	<!ENTITY ns_graphs "http://ns.adobe.com/Graphs/1.0/">
	<!ENTITY ns_vars "http://ns.adobe.com/Variables/1.0/">
	<!ENTITY ns_imrep "http://ns.adobe.com/ImageReplacement/1.0/">
	<!ENTITY ns_sfw "http://ns.adobe.com/SaveForWeb/1.0/">
	<!ENTITY ns_custom "http://ns.adobe.com/GenericCustomNamespace/1.0/">
	<!ENTITY ns_adobe_xpath "http://ns.adobe.com/XPath/1.0/">
]>
<svg version="1.1" id="Layer_1" xmlns:x="&ns_extend;" xmlns:i="&ns_ai;" xmlns:graph="&ns_graphs;"
	 xmlns="http://www.w3.org/2000/svg" xmlns:xlink="http://www.w3.org/1999/xlink" x="0px" y="0px" viewBox="0 0 24 24"
	 style="enable-background:new 0 0 24 24;" xml:space="preserve">
<style type="text/css">
	.st0{fill:#FFFFFF;}
</style>
<metadata>
	<sfw  xmlns="&ns_sfw;">
		<slices></slices>
		<sliceSourceBounds  bottomLeftOrigin="true" height="12.6" width="21.9" x="1.1" y="-17.7"></sliceSourceBounds>
	</sfw>
</metadata>
<g>
	<path class="st0" d="M5,6.8c0,0.1,0,0.2,0,0.3c0,0.1,0,0.3,0,0.4c0,0.1,0,0.2,0,0.4c0,0.3-0.2,0.5-0.5,0.5C4.2,8.2,4,8.1,4,7.8
		c0-0.3,0-0.7,0-1c0-0.3,0.2-0.7,0.4-0.9c0.3-0.4,0.8-0.7,1.3-0.7c0.1,0,0.2,0,0.3,0c5,0,10,0,15,0c0.9,0,1.7,0.6,1.9,1.4
		c0.1,0.2,0.1,0.4,0.1,0.6c0,2.4,0,4.7,0,7.1c0,0.5,0,1,0,1.4c0,0.3,0,0.7-0.2,1c-0.3,0.6-0.7,0.9-1.4,1.1c-0.1,0-0.3,0-0.4,0
		c-5,0-10,0-15,0c-1,0-1.7-0.7-1.9-1.6C4,16,4,15.8,4,15.7c0-0.2,0-0.4,0-0.6c0-0.2,0.1-0.3,0.3-0.4c0.3-0.1,0.6,0.1,0.6,0.4
		c0,0.2,0,0.4,0,0.7c0,0.1,0,0.2,0,0.4c0,0.1,0,0.1,0.1,0c0.5-0.5,1.1-0.9,1.6-1.4c0.7-0.6,1.5-1.3,2.2-1.9c0.5-0.4,1-0.9,1.5-1.3
		c0,0,0.1,0,0.1-0.1C8.6,9.9,6.8,8.3,5,6.8C5,6.8,5,6.8,5,6.8z M5.7,6.1C5.7,6.1,5.7,6.1,5.7,6.1C5.8,6.2,5.9,6.3,6,6.4
		c0.4,0.4,0.8,0.7,1.3,1.1c0.8,0.7,1.7,1.4,2.5,2.1c0.5,0.4,1,0.9,1.5,1.3c0.6,0.5,1.2,1.1,1.8,1.6c0.3,0.2,0.5,0.2,0.8,0
		c0.3-0.2,0.6-0.5,0.8-0.7c0.5-0.4,0.9-0.8,1.4-1.2c0.8-0.7,1.7-1.4,2.5-2.1c0.8-0.7,1.7-1.4,2.5-2.2c0,0,0.1-0.1,0.1-0.1
		c0,0-0.1,0-0.1,0c-0.1,0-0.2,0-0.2,0c-4.7,0-9.4,0-14.1,0c-0.3,0-0.6,0-1,0C5.8,6.1,5.8,6.1,5.7,6.1z M15.7,12.1
		c-0.3,0.3-0.6,0.6-1,0.8c-0.2,0.2-0.4,0.3-0.6,0.5c-0.2,0.2-0.5,0.2-0.8,0.2c-0.3,0-0.7-0.1-0.9-0.4c-0.4-0.4-0.8-0.7-1.2-1.1
		c0,0-0.1,0-0.1-0.1c-1.8,1.6-3.7,3.1-5.5,4.7c0,0,0,0,0,0c0,0,0.1,0,0.1,0c0.1,0,0.2,0,0.3,0c4.8,0,9.7,0,14.5,0c0.2,0,0.4,0,0.5,0
		c0,0,0.1,0,0.1,0c0,0,0,0,0,0C19.4,15.2,17.5,13.6,15.7,12.1z M16.5,11.4c1.8,1.6,3.6,3.1,5.5,4.7c0,0,0,0,0,0c0-0.1,0-0.2,0-0.3
		c0-2.9,0-5.9,0-8.8c0,0,0,0,0-0.1c0-0.1,0-0.1,0-0.2C20.1,8.3,18.3,9.9,16.5,11.4z"/>
	<path class="st0" d="M3.7,12.2c0.7,0,1.3,0,2,0c0.1,0,0.2,0,0.2,0c0.2,0,0.4,0.2,0.4,0.4c0,0.2-0.1,0.5-0.4,0.5c-0.1,0-0.2,0-0.2,0
		c-1.4,0-2.8,0-4.1,0c-0.2,0-0.3,0-0.5-0.2c-0.1-0.1-0.2-0.3-0.1-0.5c0.1-0.2,0.2-0.3,0.4-0.3c0.1,0,0.3,0,0.4,0
		C2.5,12.2,3.1,12.2,3.7,12.2z"/>
	<path class="st0" d="M4.5,10.7c-0.4,0-0.9,0-1.3,0c-0.1,0-0.1,0-0.2,0c-0.2,0-0.4-0.2-0.4-0.5c0-0.2,0.2-0.4,0.4-0.5
		c0.1,0,0.2,0,0.2,0c0.9,0,1.7,0,2.6,0c0.1,0,0.2,0,0.2,0c0.2,0,0.4,0.3,0.4,0.5c0,0.2-0.2,0.4-0.4,0.4C5.5,10.7,5,10.7,4.5,10.7
		C4.5,10.7,4.5,10.7,4.5,10.7z"/>
</g>
</svg>
