<?xml version="1.0" encoding="utf-8"?>
<!-- Generator: Adobe Illustrator 27.5.0, SVG Export Plug-In . SVG Version: 6.00 Build 0)  -->
<!DOCTYPE svg PUBLIC "-//W3C//DTD SVG 1.1//EN" "http://www.w3.org/Graphics/SVG/1.1/DTD/svg11.dtd" [
	<!ENTITY ns_extend "http://ns.adobe.com/Extensibility/1.0/">
	<!ENTITY ns_ai "http://ns.adobe.com/AdobeIllustrator/10.0/">
	<!ENTITY ns_graphs "http://ns.adobe.com/Graphs/1.0/">
	<!ENTITY ns_vars "http://ns.adobe.com/Variables/1.0/">
	<!ENTITY ns_imrep "http://ns.adobe.com/ImageReplacement/1.0/">
	<!ENTITY ns_sfw "http://ns.adobe.com/SaveForWeb/1.0/">
	<!ENTITY ns_custom "http://ns.adobe.com/GenericCustomNamespace/1.0/">
	<!ENTITY ns_adobe_xpath "http://ns.adobe.com/XPath/1.0/">
]>
<svg version="1.1" id="Layer_1" xmlns:x="&ns_extend;" xmlns:i="&ns_ai;" xmlns:graph="&ns_graphs;"
	 xmlns="http://www.w3.org/2000/svg" xmlns:xlink="http://www.w3.org/1999/xlink" x="0px" y="0px" viewBox="0 0 24 24"
	 style="enable-background:new 0 0 24 24;" xml:space="preserve">
<style type="text/css">
	.st0{fill:#FFFFFF;}
</style>
<metadata>
	<sfw  xmlns="&ns_sfw;">
		<slices></slices>
		<sliceSourceBounds  bottomLeftOrigin="true" height="16.7" width="16.7" x="3.6" y="-20.3"></sliceSourceBounds>
	</sfw>
</metadata>
<g>
	<path class="st0" d="M12.8,3.7c0.1,0,0.2,0,0.3,0.1C16,4.1,18,5.6,19.4,8.1c0.6,1.1,1,2.4,0.9,3.7c-0.1,3.6-2.2,6.6-5.6,7.8
		c-2.2,0.8-4.4,0.6-6.5-0.5C8.1,19,8,19,7.9,19c-1.3,0.4-2.7,0.9-4,1.3c0,0-0.1,0-0.2,0c0-0.2,0.1-0.3,0.1-0.4
		c0.4-1.1,0.7-2.2,1.1-3.3c0.2-0.4,0.1-0.6-0.1-1C2.4,11,4.8,5.4,9.8,4c0.5-0.1,1-0.2,1.5-0.3 M5.5,18.4c0.2,0,0.3,0,0.3-0.1
		c0.7-0.2,1.4-0.5,2.1-0.7c0.2,0,0.4,0,0.5,0.1c1.6,1,3.4,1.2,5.2,0.8c3.4-0.8,5.9-4.1,5.1-8.1c-0.7-3.3-3.6-5.9-7.7-5.5
		C8.4,5.3,6,7.4,5.3,10.2c-0.5,1.9-0.1,3.7,0.9,5.4c0.2,0.3,0.2,0.4,0.1,0.7C6.1,16.9,5.8,17.6,5.5,18.4z"/>
	<path class="st0" d="M9.6,7.8c0.3,0,0.5,0.1,0.7,0.5c0.1,0.5,0.4,0.9,0.5,1.4c0,0.1,0,0.4-0.1,0.5c-0.2,0.2-0.4,0.4-0.6,0.7
		c-0.1,0.1-0.1,0.2,0,0.3c0.6,1.3,1.7,2.2,2.9,2.7c0.1,0,0.3,0,0.4-0.1c0.3-0.2,0.5-0.5,0.7-0.8c0.1-0.1,0.2-0.1,0.3-0.1
		c0.6,0.3,1.1,0.6,1.7,0.9c0.2,0.1,0.2,0.2,0.2,0.5c-0.1,0.7-0.5,1.1-1.1,1.4c-0.7,0.4-1.4,0.1-2.1-0.1c-1.6-0.6-2.9-1.6-3.9-3
		c-0.4-0.6-0.8-1.1-1.1-1.8C7.8,9.9,7.9,9.1,8.5,8.3C8.8,8,9.1,7.8,9.6,7.8z"/>
</g>
</svg>
