<?xml version="1.0" encoding="utf-8"?>
<!-- Generator: Adobe Illustrator 27.5.0, SVG Export Plug-In . SVG Version: 6.00 Build 0)  -->
<svg version="1.1" id="Layer_1" xmlns="http://www.w3.org/2000/svg" xmlns:xlink="http://www.w3.org/1999/xlink" x="0px" y="0px"
	 viewBox="0 0 46 46" style="enable-background:new 0 0 46 46;" xml:space="preserve">
<style type="text/css">
	.st0{fill:#A0A0A0;}
</style>
<g>
	<path class="st0" d="M16.79,35.33c0-0.09,0-0.16,0-0.24c0-2.43,0-4.85,0-7.28c0-0.13,0.05-0.19,0.16-0.25
		c0.39-0.22,0.77-0.44,1.15-0.67c0.47-0.29,0.63-0.78,0.83-1.26c0.13-0.33,0.1-0.58-0.12-0.86c-0.52-0.67-0.82-1.44-0.9-2.29
		c-0.01-0.05-0.05-0.12-0.09-0.15c-0.27-0.15-0.4-0.4-0.47-0.67c-0.19-0.74-0.36-1.49-0.52-2.24c-0.07-0.36-0.09-0.72,0.21-1.02
		c0.04-0.04,0.04-0.14,0.04-0.21c0.01-0.22,0-0.44,0-0.66c0.33,0.11,0.67,0.23,1.01,0.34c0.4,0.12,0.4,0.12,0.4,0.54
		c0,0.29,0,0.58,0,0.88c0,0.16-0.04,0.3-0.21,0.37c-0.16,0.07-0.27-0.03-0.37-0.13c-0.12-0.12-0.22-0.24-0.34-0.36
		c-0.05-0.05-0.1-0.09-0.14-0.13c-0.02,0.01-0.03,0.02-0.05,0.02c0.04,0.25,0.07,0.49,0.13,0.74c0.14,0.58,0.28,1.16,0.43,1.74
		c0.03,0.13,0.09,0.2,0.25,0.2c0.2,0,0.28,0.12,0.31,0.36c0.04,0.34,0.08,0.69,0.16,1.03c0.18,0.75,0.65,1.34,1.12,1.93
		c0.28,0.35,0.6,0.67,0.93,0.98c0.38,0.35,0.84,0.54,1.37,0.53c0.74-0.01,1.47-0.01,2.21-0.03c0.34-0.01,0.66-0.17,0.91-0.39
		c0.86-0.74,1.56-1.59,2.04-2.63c0.2-0.43,0.28-0.88,0.3-1.35c0.01-0.35,0.04-0.37,0.38-0.44c0.05-0.01,0.12-0.06,0.13-0.11
		c0.2-0.82,0.38-1.64,0.57-2.46c0.01-0.03-0.01-0.07-0.01-0.16c-0.09,0.1-0.16,0.17-0.22,0.24c-0.1,0.11-0.2,0.24-0.32,0.32
		c-0.09,0.06-0.23,0.11-0.32,0.08c-0.09-0.03-0.18-0.16-0.2-0.27c-0.03-0.15-0.01-0.32-0.01-0.47c0-0.27,0-0.53,0.01-0.8
		c0-0.06,0.07-0.14,0.13-0.16c0.42-0.14,0.84-0.27,1.28-0.41c0,0.18,0.01,0.39,0,0.59c-0.01,0.16,0.01,0.28,0.12,0.4
		c0.22,0.23,0.18,0.52,0.14,0.8c-0.04,0.34-0.13,0.69-0.2,1.02c-0.1,0.43-0.2,0.85-0.31,1.27c-0.07,0.28-0.2,0.53-0.46,0.7
		c-0.05,0.03-0.1,0.12-0.11,0.18c-0.09,0.94-0.48,1.75-1.05,2.49c-0.1,0.13-0.11,0.24-0.05,0.39c0.06,0.15,0.11,0.31,0.16,0.47
		c0.17,0.54,0.51,0.93,0.98,1.22c0.3,0.18,0.61,0.34,0.92,0.5c0.11,0.05,0.16,0.12,0.16,0.25c0,2.39,0,4.79-0.01,7.18
		c0,0.11,0,0.21,0,0.34C25.07,35.33,20.95,35.33,16.79,35.33z M19.56,25.79c-0.19,0.38-0.37,0.74-0.56,1.08
		c-0.06,0.11-0.08,0.2-0.03,0.32c0.22,0.55,0.51,1.05,0.91,1.48c1.08,1.16,2.4,1.68,3.96,1.34c1.59-0.35,2.63-1.38,3.21-2.89
		c0.03-0.07,0-0.17-0.04-0.24c-0.15-0.33-0.32-0.66-0.48-0.99c-0.02-0.04-0.03-0.07-0.06-0.13c-0.06,0.05-0.1,0.09-0.14,0.13
		c-0.19,0.19-0.38,0.39-0.58,0.57c-0.48,0.43-1.04,0.69-1.68,0.7c-0.7,0.01-1.41,0.02-2.11,0c-0.28-0.01-0.57-0.07-0.83-0.16
		c-0.6-0.2-1.02-0.65-1.44-1.09C19.64,25.87,19.59,25.82,19.56,25.79z"/>
	<path class="st0" d="M19.81,9.58c0,1.3,0,2.58,0,3.88c0.16,0.01,0.31,0.03,0.46,0.03c0.04,0,0.1-0.1,0.1-0.16
		c0.01-0.65,0.01-1.31,0.01-1.96c0-0.6,0.01-1.21,0-1.81c-0.01-0.52,0.23-0.87,0.7-1.07c0.14-0.06,0.29-0.12,0.47-0.19
		c0.01,0.08,0.03,0.16,0.03,0.23c0,0.7,0.02,1.41,0,2.11c-0.02,0.76,0.58,1.21,1.19,1.19c0.16-0.01,0.33,0,0.5,0
		c0.71-0.01,1.16-0.46,1.17-1.17c0-0.68,0-1.36,0-2.04c0-0.1,0.01-0.2,0.01-0.3c0.88,0.23,1.21,0.59,1.2,1.34
		c-0.02,1.21,0,2.43-0.01,3.64c0,0.16,0.04,0.21,0.2,0.2c0.35-0.02,0.35-0.01,0.35-0.36c0-1.15-0.01-2.3-0.01-3.45
		c0-0.02,0.01-0.05,0.02-0.11c0.97,0.62,1.72,1.41,2.22,2.43c0.51,1.02,0.67,2.09,0.57,3.24c0.09,0,0.17,0,0.25,0
		c0.26-0.01,0.35,0.07,0.35,0.32c0,0.14-0.01,0.28,0,0.42c0.03,0.3-0.12,0.51-0.35,0.67c-0.45,0.33-0.97,0.49-1.5,0.63
		c-1.2,0.32-2.43,0.46-3.67,0.49c-1.09,0.02-2.18-0.01-3.27-0.07c-1.01-0.06-2.01-0.21-2.97-0.53c-0.36-0.12-0.7-0.29-1.03-0.48
		c-0.28-0.15-0.44-0.4-0.4-0.74c0.01-0.14,0-0.28,0-0.42c0-0.21,0.08-0.28,0.29-0.29c0.29-0.01,0.3-0.01,0.29-0.31
		c-0.04-1.09,0.16-2.13,0.69-3.1c0.5-0.91,1.19-1.64,2.05-2.21C19.74,9.59,19.76,9.59,19.81,9.58z"/>
	<path class="st0" d="M9.52,35.35c0-1.03-0.03-2.03,0.01-3.03c0.04-0.87,0.45-1.59,1.18-2.08c0.41-0.27,0.84-0.53,1.3-0.71
		c1.01-0.4,2.04-0.76,3.08-1.14c0.01,0.08,0.02,0.14,0.02,0.2c0,2.18,0,4.37,0,6.55c0,0.15-0.02,0.21-0.2,0.21
		c-1.7-0.01-3.4,0-5.1,0C9.72,35.35,9.63,35.35,9.52,35.35z"/>
	<path class="st0" d="M30.91,28.37c1.18,0.45,2.32,0.87,3.45,1.33c0.62,0.26,1.2,0.61,1.6,1.19c0.34,0.48,0.52,1.01,0.52,1.6
		c0.01,0.91,0,1.83,0.01,2.74c0,0.03-0.01,0.06-0.01,0.1c-1.86,0-3.71,0-5.57,0C30.91,33.02,30.91,30.72,30.91,28.37z"/>
	<path class="st0" d="M23.87,9.46c0,0.4,0,0.8,0,1.2c0,0.38-0.16,0.58-0.53,0.62c-0.25,0.03-0.51,0.01-0.76-0.02
		c-0.28-0.03-0.45-0.23-0.45-0.5c-0.01-0.88-0.01-1.75,0-2.63c0-0.32,0.22-0.51,0.54-0.52c0.21-0.01,0.42-0.01,0.63,0
		c0.36,0.01,0.56,0.21,0.56,0.58C23.88,8.61,23.87,9.03,23.87,9.46z"/>
</g>
</svg>
