<?xml version="1.0" encoding="utf-8"?>
<!-- Generator: Adobe Illustrator 27.5.0, SVG Export Plug-In . SVG Version: 6.00 Build 0)  -->
<svg version="1.1" id="Layer_1" xmlns="http://www.w3.org/2000/svg" xmlns:xlink="http://www.w3.org/1999/xlink" x="0px" y="0px"
	 viewBox="0 0 46 46" style="enable-background:new 0 0 46 46;" xml:space="preserve">
<style type="text/css">
	.st0{fill:#A0A0A0;}
</style>
<g>
	<path class="st0" d="M8.23,33.05c0.07-0.25,0.13-0.49,0.21-0.73c0.24-0.69,0.65-1.27,1.26-1.68c1.98-1.34,3.97-2.66,5.95-3.99
		c0.39-0.26,0.83-0.5,1.15-0.83c0.77-0.8,0.7-1.94-0.12-2.76c-0.66-0.66-1.33-1.32-1.99-1.99c-0.52-0.53-0.53-1.08,0-1.6
		c0.68-0.68,1.36-1.36,2.04-2.04c0.05-0.05,0.1-0.09,0.14-0.12c3.73,3.73,7.45,7.45,11.19,11.19c-0.03,0.03-0.08,0.09-0.14,0.15
		c-0.67,0.67-1.34,1.34-2,2c-0.55,0.54-1.09,0.54-1.63,0c-0.66-0.66-1.32-1.33-1.99-1.99c-0.8-0.79-1.89-0.86-2.71-0.13
		c-0.22,0.2-0.39,0.46-0.56,0.71c-1.21,1.82-2.39,3.66-3.61,5.47c-0.42,0.63-0.83,1.27-1.46,1.73c-0.46,0.33-0.96,0.55-1.52,0.64
		c-0.04,0.01-0.08,0.03-0.13,0.05c-0.31,0-0.62,0-0.94,0c-0.04-0.01-0.07-0.04-0.11-0.04c-1.45-0.27-2.4-1.11-2.88-2.49
		c-0.07-0.2-0.1-0.4-0.16-0.61C8.23,33.67,8.23,33.36,8.23,33.05z M11.89,34.87c0.76,0,1.4-0.65,1.4-1.41
		c-0.01-0.76-0.62-1.38-1.39-1.39c-0.76-0.01-1.41,0.63-1.41,1.39C10.48,34.22,11.13,34.87,11.89,34.87z"/>
	<path class="st0" d="M29.58,26.97c-3.73-3.73-7.45-7.45-11.19-11.19c0.04-0.05,0.1-0.11,0.16-0.17c2.53-2.53,5.07-5.07,7.6-7.61
		c0.33-0.33,0.69-0.5,1.16-0.34c0.11,0.04,0.23,0.1,0.32,0.19c0.37,0.35,0.73,0.7,1.08,1.07c0.33,0.35,0.36,0.76,0.17,1.19
		c-0.06,0.14-0.13,0.28-0.22,0.48c0.16-0.07,0.28-0.12,0.39-0.18c0.58-0.27,0.96-0.21,1.42,0.25c0.42,0.42,0.84,0.84,1.26,1.26
		c0.57,0.57,1.14,1.14,1.71,1.71c0.53,0.53,0.57,0.98,0.15,1.6c-0.6,0.89-1.2,1.79-1.8,2.68c-0.03,0.05-0.06,0.1-0.07,0.19
		c0.27-0.18,0.55-0.37,0.82-0.55c0.7-0.48,1.41-0.96,2.11-1.43c0.52-0.35,0.97-0.3,1.41,0.14c0.46,0.45,0.91,0.9,1.36,1.36
		c0.48,0.48,0.49,1.06,0.02,1.53c-2.59,2.59-5.18,5.18-7.77,7.77C29.63,26.93,29.6,26.95,29.58,26.97z"/>
</g>
</svg>
