<?xml version="1.0" encoding="utf-8"?>
<!-- Generator: Adobe Illustrator 27.5.0, SVG Export Plug-In . SVG Version: 6.00 Build 0)  -->
<svg version="1.1" id="Layer_1" xmlns="http://www.w3.org/2000/svg" xmlns:xlink="http://www.w3.org/1999/xlink" x="0px" y="0px"
	 viewBox="0 0 46 46" style="enable-background:new 0 0 46 46;" xml:space="preserve">
<style type="text/css">
	.st0{fill:#A0A0A0;}
</style>
<g>
	<path class="st0" d="M23.05,35.08c-1.16-0.07-2.22-0.09-3.27-0.19c-2.42-0.24-4.78-0.74-7.04-1.66c-0.65-0.26-1.24-0.6-1.68-1.16
		c-0.58-0.75-0.72-1.6-0.68-2.52c0.09-1.73,0.9-3.1,2.11-4.27c1.36-1.32,3.01-2.14,4.78-2.76c0.43-0.15,0.72-0.12,1.09,0.19
		c1.05,0.88,2.3,1.39,3.66,1.55c2.22,0.26,4.2-0.34,5.91-1.81c0.09-0.08,0.17-0.11,0.29-0.07c1.48,0.45,2.88,1.06,4.14,1.97
		c1.31,0.94,2.38,2.09,2.92,3.64c0.34,0.99,0.46,2,0.15,3.03c-0.28,0.92-0.87,1.58-1.74,1.97c-1.48,0.68-3.03,1.15-4.63,1.45
		c-0.84,0.16-1.68,0.32-2.52,0.4C25.36,34.96,24.16,35.01,23.05,35.08z"/>
	<path class="st0" d="M22.99,10.92c3.35,0.01,5.93,2.75,5.91,5.95c-0.02,3.13-2.57,5.89-5.95,5.86c-3.32-0.02-5.87-2.76-5.85-5.94
		C17.11,13.66,19.64,10.93,22.99,10.92z"/>
	<path class="st0" d="M29.21,21.01c0.41-0.62,0.72-1.27,0.94-1.96c0.05-0.17,0.33-0.24,0.47-0.12c0.83,0.68,1.77,1.09,2.84,1.18
		c1.4,0.13,2.68-0.23,3.79-1.12c0.14-0.11,0.25-0.14,0.42-0.08c1.14,0.38,2.2,0.91,3.09,1.75c0.66,0.62,1.15,1.34,1.31,2.25
		c0.12,0.66,0.14,1.32-0.31,1.88c-0.19,0.24-0.45,0.47-0.72,0.6c-1.16,0.56-2.4,0.87-3.66,1.09c-0.24,0.04-0.48,0.08-0.71,0.12
		c-0.15,0.03-0.24,0-0.32-0.16c-0.75-1.42-1.84-2.53-3.14-3.44c-1.15-0.81-2.4-1.42-3.74-1.88C29.39,21.08,29.31,21.05,29.21,21.01z
		"/>
	<path class="st0" d="M16.77,21c-0.52,0.21-1.04,0.4-1.54,0.62c-1.63,0.72-3.1,1.67-4.3,2.99c-0.51,0.56-0.95,1.16-1.29,1.84
		c-0.06,0.12-0.13,0.16-0.25,0.14c-1.52-0.22-3.02-0.54-4.42-1.2c-0.71-0.33-1.07-0.92-1.1-1.69c-0.05-1.21,0.48-2.19,1.33-3.01
		c0.92-0.89,2.03-1.43,3.23-1.81c0.08-0.02,0.21,0.03,0.28,0.09c0.83,0.66,1.77,1.05,2.81,1.14c1.43,0.12,2.71-0.27,3.83-1.18
		c0.16-0.13,0.43-0.06,0.49,0.14C16.06,19.76,16.37,20.39,16.77,21z"/>
	<path class="st0" d="M12,18.54c-2.06,0.01-3.66-1.7-3.67-3.65c-0.01-1.94,1.53-3.7,3.69-3.69c2.01,0.01,3.64,1.61,3.65,3.67
		C15.69,16.89,14.03,18.54,12,18.54z"/>
	<path class="st0" d="M37.65,14.88c0.04,1.96-1.61,3.68-3.69,3.66c-1.95-0.01-3.63-1.57-3.64-3.63c-0.02-2.08,1.63-3.71,3.65-3.71
		C36.14,11.2,37.69,12.97,37.65,14.88z"/>
</g>
</svg>
